<?xml version="1.0" standalone="no"?><!DOCTYPE svg PUBLIC "-//W3C//DTD SVG 1.1//EN" "http://www.w3.org/Graphics/SVG/1.1/DTD/svg11.dtd"><svg t="1705649005651" class="icon" viewBox="0 0 1024 1024" version="1.1" xmlns="http://www.w3.org/2000/svg" p-id="4393" xmlns:xlink="http://www.w3.org/1999/xlink" width="200" height="200"><path d="M0 0h1024v1024H0z" fill="#FFFFFF" fill-opacity=".01" p-id="4394"></path><path d="M858.176 321.664a42.688 42.688 0 0 1 75.648 39.36c-16.192 31.168-40.32 59.712-71.04 84.864-83.584 68.544-212.16 108.8-350.784 108.8s-267.2-40.256-350.848-108.8a275.648 275.648 0 0 1-71.04-84.864 42.688 42.688 0 0 1 75.712-39.36c10.624 20.352 27.264 40.128 49.472 58.24C282.624 435.072 392.064 469.312 512 469.312s229.376-34.24 296.704-89.408a191.36 191.36 0 0 0 49.472-58.24z" fill="#333333" p-id="4395"></path><path d="M607.168 470.784a42.688 42.688 0 0 1 50.176 24.192l2.048 5.952 44.16 164.864a42.688 42.688 0 0 1-80.32 28.096l-2.112-6.016-44.16-164.8a42.688 42.688 0 0 1 30.208-52.288zM766.72 425.344a42.688 42.688 0 0 1 55.04-4.48l5.312 4.48 120.64 120.704a42.688 42.688 0 0 1-55.04 64.832l-5.312-4.48-120.64-120.704a42.688 42.688 0 0 1 0-60.352zM197.12 425.344a42.688 42.688 0 0 1 64.896 55.04l-4.48 5.312-120.704 120.704a42.688 42.688 0 0 1-64.832-55.04l4.48-5.312 120.704-120.704zM364.096 500.928a42.688 42.688 0 0 1 83.584 15.936l-1.152 6.208-44.16 164.8A42.688 42.688 0 0 1 318.72 672L320 665.792l44.16-164.864z" fill="#333333" p-id="4396"></path></svg>