<?xml version="1.0" standalone="no"?><!DOCTYPE svg PUBLIC "-//W3C//DTD SVG 1.1//EN" "http://www.w3.org/Graphics/SVG/1.1/DTD/svg11.dtd"><svg t="1705648993505" class="icon" viewBox="0 0 1024 1024" version="1.1" xmlns="http://www.w3.org/2000/svg" p-id="4242" xmlns:xlink="http://www.w3.org/1999/xlink" width="200" height="200"><path d="M0 0h1024v1024H0z" fill="#FFFFFF" fill-opacity=".01" p-id="4243"></path><path d="M512 213.312c-114.752 0-225.472 52.096-328.96 137.856-35.456 29.44-67.584 60.8-95.872 92.288l-13.44 15.296-15.488 18.56-7.104 9.152a42.688 42.688 0 0 0 0 51.072l7.04 9.088 9.728 11.84 12.16 14.144 7.04 7.936c28.352 31.424 60.48 62.912 96 92.288 103.424 85.76 214.144 137.856 328.896 137.856 114.752 0 225.472-52.096 328.96-137.856a915.84 915.84 0 0 0 95.872-92.288l13.44-15.296 15.488-18.56 7.104-9.152a42.688 42.688 0 0 0 0-51.072l-7.04-9.088-9.728-11.84-12.16-14.144-7.04-7.936a915.84 915.84 0 0 0-96-92.288C737.472 265.408 626.752 213.312 512 213.312z m0 85.376c91.456 0 184.96 43.904 274.496 118.144 32 26.624 61.248 55.168 86.912 83.712l10.112 11.392-10.112 11.52a831.36 831.36 0 0 1-86.912 83.712c-89.6 74.24-183.04 118.144-274.496 118.144-91.456 0-184.96-43.904-274.496-118.144a831.36 831.36 0 0 1-86.912-83.712L140.416 512l10.176-11.392A831.36 831.36 0 0 1 237.44 416.832c89.6-74.24 183.04-118.144 274.496-118.144z" fill="#333333" p-id="4244"></path><path d="M512 362.688a149.312 149.312 0 1 0 0 298.624 149.312 149.312 0 0 0 0-298.624zM512 448a64 64 0 1 1 0 128 64 64 0 0 1 0-128z" fill="#333333" p-id="4245"></path></svg>